<?xml version="1.0" encoding="iso-8859-1"?>
<!-- Generator: Adobe Illustrator 19.0.0, SVG Export Plug-In . SVG Version: 6.00 Build 0)  -->
<svg version="1.1" id="Layer_1" xmlns="http://www.w3.org/2000/svg" xmlns:xlink="http://www.w3.org/1999/xlink" x="0px" y="0px"
	 viewBox="0 0 512 512" style="enable-background:new 0 0 512 512;" xml:space="preserve">
<g>
	<g>
		<path d="M256.08,344.728c-26.688,0-48.4,21.433-48.4,47.776c0,26.343,21.712,47.776,48.4,47.776c26.689,0,48.4-21.433,48.4-47.776
			C304.48,366.161,282.768,344.728,256.08,344.728z M256.08,408.28c-9.043,0-16.4-7.077-16.4-15.776
			c0-8.699,7.357-15.776,16.4-15.776c9.043,0,16.4,7.077,16.4,15.776C272.48,401.203,265.123,408.28,256.08,408.28z"/>
	</g>
</g>
<g>
	<g>
		<path d="M360.288,310.801c-26.097-30.143-64.138-47.431-104.369-47.431c-40.172,0-78.156,17.231-104.215,47.276
			c-5.79,6.675-5.071,16.781,1.604,22.57c6.675,5.789,16.78,5.071,22.57-1.604c19.977-23.033,49.151-36.243,80.041-36.243
			c30.939,0,60.162,13.259,80.176,36.376c3.165,3.654,7.622,5.527,12.104,5.527c3.711,0,7.44-1.285,10.465-3.902
			C365.345,327.586,366.071,317.482,360.288,310.801z"/>
	</g>
</g>
<g>
	<g>
		<path d="M432.025,248.425c-44.023-50.791-108.206-79.921-176.09-79.921c-67.776,0-131.89,29.061-175.904,79.731
			c-5.795,6.671-5.085,16.776,1.587,22.571s16.777,5.085,22.572-1.587c37.932-43.67,93.242-68.716,151.745-68.716
			c58.599,0,113.968,25.106,151.909,68.88c3.164,3.651,7.619,5.521,12.098,5.521c3.714,0,7.446-1.286,10.472-3.909
			C437.091,265.207,437.812,255.102,432.025,248.425z"/>
	</g>
</g>
<g>
	<g>
		<path d="M508.09,186.152C445.044,113.428,353.143,71.72,255.952,71.72c-97.121,0-188.984,41.659-252.035,114.295
			c-5.792,6.673-5.078,16.779,1.595,22.571c6.672,5.791,16.778,5.077,22.571-1.595c56.969-65.631,140.024-103.272,227.869-103.272
			c87.907,0,170.995,37.685,227.958,103.393c3.164,3.65,7.618,5.52,12.097,5.52c3.715,0,7.446-1.286,10.474-3.91
			C513.157,202.934,513.878,192.829,508.09,186.152z"/>
	</g>
</g>
<g>
</g>
<g>
</g>
<g>
</g>
<g>
</g>
<g>
</g>
<g>
</g>
<g>
</g>
<g>
</g>
<g>
</g>
<g>
</g>
<g>
</g>
<g>
</g>
<g>
</g>
<g>
</g>
<g>
</g>
</svg>
